PathFileType	4	(X/Y/Z)	C:\Users\Basilio\Documents\Thesis Gigler\squatting_fais\c3dfiles\077\SJ_pre3\markers_experimental.trc
DataRate	CameraRate	NumFrames	NumMarkers	Units	OrigDataRate	OrigDataStartFrame	OrigNumFrames
200.000000	200.000000	4	60	mm	200.000000	355	1422
Frame#	Time	FHD			LBHD			RBHD			C7			T10			CLAV			LSHO			LUUPA			LMUPA			LDUPA			LLEP			LMEP			LRAD			LUL			LRFIN			RSHO			RUPA1			RMUPA			RDUPA			RLEP			RMEP			RRAD			RUL			RUFIN			LASI			RASI			USACR			LSACR			RSACR			LTHI1			LTHI2			LTHI3			LTHI4			LLFC			LMFC			LTIB1			LTIB2			LTIB3			LTIB4			LLMAL			LHEE			LMT1			LMT2			LMT5			RTHI			RTHI2			RTHI3			RTHI4			RLFC			RMFC			RTIB1			RTIB2			RTIB3			RTIB4			RLMAL			RMMAL			RHEE			RMT1			RMT2			RMT5			
		X1	Y1	Z1	X2	Y2	Z2	X3	Y3	Z3	X4	Y4	Z4	X5	Y5	Z5	X6	Y6	Z6	X7	Y7	Z7	X8	Y8	Z8	X9	Y9	Z9	X10	Y10	Z10	X11	Y11	Z11	X12	Y12	Z12	X13	Y13	Z13	X14	Y14	Z14	X15	Y15	Z15	X16	Y16	Z16	X17	Y17	Z17	X18	Y18	Z18	X19	Y19	Z19	X20	Y20	Z20	X21	Y21	Z21	X22	Y22	Z22	X23	Y23	Z23	X24	Y24	Z24	X25	Y25	Z25	X26	Y26	Z26	X27	Y27	Z27	X28	Y28	Z28	X29	Y29	Z29	X30	Y30	Z30	X31	Y31	Z31	X32	Y32	Z32	X33	Y33	Z33	X34	Y34	Z34	X35	Y35	Z35	X36	Y36	Z36	X37	Y37	Z37	X38	Y38	Z38	X39	Y39	Z39	X40	Y40	Z40	X41	Y41	Z41	X42	Y42	Z42	X43	Y43	Z43	X44	Y44	Z44	X45	Y45	Z45	X46	Y46	Z46	X47	Y47	Z47	X48	Y48	Z48	X49	Y49	Z49	X50	Y50	Z50	X51	Y51	Z51	X52	Y52	Z52	X53	Y53	Z53	X54	Y54	Z54	X55	Y55	Z55	X56	Y56	Z56	X57	Y57	Z57	X58	Y58	Z58	X59	Y59	Z59	X60	Y60	Z60	

356	1.775	-17.27478218078614	1326.701171875	-917.741149902344	-153.4742736816407	1211.730346679688	-985.3276367187502	-160.3883056640625	1210.62255859375	-839.452331542969	-214.1433258056641	1148.180541992188	-913.2597656250002	-435.370574951172	922.0049438476565	-915.0420532226565	-98.16815185546878	1005.158203125	-907.2080078125002	-92.49939727783205	1064.60498046875	-1084.7919921875	-162.7612915039063	995.4532470703127	-1276.01416015625	-166.9017791748047	945.8757934570315	-1279.766357421875	-191.1567840576172	966.6492919921877	-1331.81982421875	-228.9591217041016	917.018493652344	-1371.163452148438	-300.0447692871094	968.7185668945315	-1366.35595703125	-432.2238769531251	818.1981201171877	-1145.527221679688	-409.9819946289064	751.5850830078126	-1188.725830078125	nan	nan	nan	-73.15074920654298	1045.423583984375	-734.2036743164064	-178.7937622070313	968.701110839844	-541.8173828125001	-195.3189544677735	921.6682128906252	-550.5642700195314	-221.9727935791016	934.687683105469	-497.8878784179689	-271.6888732910157	886.5786132812502	-473.1543884277345	-338.7051086425782	945.8663330078127	-477.8529663085939	-481.3430175781251	788.7088012695315	-673.3156738281251	-444.5002746582032	720.9350585937501	-653.2968139648439	nan	nan	nan	nan	nan	nan	nan	nan	nan	-527.1600341796876	851.019958496094	-919.289489746094	-549.6156005859376	838.5676879882815	-950.3565063476565	-560.2866210937501	834.4786376953127	-896.1834716796877	-429.3807983398439	631.8843383789064	-1184.329833984375	-351.7215576171876	621.0259399414064	-1215.75634765625	-323.2814331054688	659.2952270507814	-1203.55859375	-326.1238403320313	569.4301147460939	-1234.441162109375	-193.6042022705079	502.7971801757814	-1269.23779296875	-146.9029235839844	467.5295715332032	-1154.920166015625	-210.1423645019532	285.3601684570313	-1212.705078125	-277.8134155273438	264.2051696777344	-1269.901611328125	-243.6583709716797	248.317367553711	-1244.74365234375	-277.3168640136719	178.0123138427735	-1206.970581054688	-387.2762451171876	99.99941253662112	-1233.339599609375	-439.8862609863282	47.78902053833009	-1174.336181640625	-225.1837005615235	59.0193214416504	-1209.925048828125	-234.5748138427735	58.87392044067384	-1250.956787109375	-339.4556274414063	98.3608322143555	-1157.920288085938	-371.4761657714844	575.5029296875001	-603.6653442382814	-306.4421386718751	587.6575317382814	-578.0216064453126	-287.3024291992188	615.0286865234376	-586.6876220703126	-255.7494201660157	523.1610717773439	-561.2269287109376	-220.4815368652344	483.9823608398439	-544.8840942382814	-154.8385925292969	464.6882934570314	-652.6071166992189	-206.9510040283204	345.7832641601563	-551.0763549804689	-304.9384460449219	299.4358825683594	-546.7205810546876	-262.7789306640626	279.4809570312501	-555.9692993164064	-261.6912231445313	235.2634277343751	-596.2961425781251	-398.8997192382814	95.30016326904298	-593.8948364257814	-346.5555419921876	90.96523284912111	-669.7202148437501	-448.1675415039064	46.6423568725586	-663.4108276367189	-239.187484741211	60.23576736450197	-574.8325195312501	-254.9500274658204	61.36462402343751	-540.6386108398439	-286.3476867675782	41.30488967895509	-499.9891357421876	
357	1.78	-16.44690132141114	1322.89990234375	-917.8816528320315	-153.0293273925782	1208.2021484375	-985.1636352539065	-159.6685943603516	1207.292602539063	-839.4111328125002	-213.3573913574219	1144.908447265625	-913.2229614257815	-435.0730895996095	919.3026123046877	-914.9475708007815	-97.62873840332034	1001.771179199219	-907.1936645507815	-91.68084716796876	1060.911865234375	-1084.64404296875	-162.0252838134766	992.0865478515627	-1275.994750976563	-166.3546752929688	942.942565917969	-1279.75634765625	-190.0394287109375	963.4913330078127	-1331.711547851563	-228.6473236083985	913.9697875976565	-1371.259033203125	-299.6504516601563	965.983337402344	-1366.423217773438	-432.0221252441407	816.4232177734377	-1145.309204101563	-410.3377075195314	749.6576538085939	-1188.643920898438	nan	nan	nan	-72.25211334228517	1042.038208007813	-734.3523559570314	-177.9805450439453	965.5725708007815	-541.8006591796876	-194.8624114990235	918.7003173828127	-550.7145996093751	-221.3084869384766	931.6921997070315	-497.7389221191407	-271.3038940429688	883.829528808594	-473.187469482422	-337.9778442382813	943.411315917969	-477.7297363281251	-481.7725219726564	786.9253540039065	-673.1636352539064	-445.0166320800782	719.0701293945314	-653.0424194335939	nan	nan	nan	nan	nan	nan	nan	nan	nan	-526.9947509765626	848.7039794921877	-919.2435302734377	-549.6115112304689	836.3884887695315	-950.3807373046877	-560.3875122070314	832.0896606445315	-896.1533203125002	-429.3431396484376	630.3671264648439	-1184.304565429688	-351.9822692871094	619.9578247070314	-1215.744506835938	-323.7581481933594	658.2836914062501	-1203.389404296875	-326.0274963378907	568.6550292968751	-1234.516967773438	-193.2812805175782	502.5388793945314	-1269.480712890625	-146.6160430908203	467.2854614257814	-1155.190795898438	-209.9905242919922	285.2175292968751	-1212.925170898438	-277.6917419433594	264.1619567871094	-1270.059448242188	-243.5316619873047	248.1869812011719	-1244.861694335938	-277.2041625976563	177.9372100830078	-1207.0771484375	-387.4270629882814	99.92948150634768	-1233.253540039063	-439.8320617675782	47.76692199707032	-1174.272705078125	-225.4049072265626	59.85160064697267	-1209.90576171875	-234.6779174804688	58.97397994995119	-1250.943115234375	-339.3967590332032	98.40574645996097	-1157.921020507813	-371.4003295898438	574.5197753906251	-603.5140991210939	-306.4348144531251	586.9404907226564	-577.9708862304689	-287.4558410644532	614.3863525390626	-586.7355957031251	-255.5272674560547	522.7874145507814	-561.0741577148439	-220.0707397460938	483.7141418457032	-544.6746215820314	-154.5057830810547	464.5028381347657	-652.4901123046876	-206.6623840332032	345.4199218750001	-550.9809570312501	-304.7400207519532	299.3996276855469	-546.6011962890626	-262.5546264648438	279.4877319335938	-555.9067382812501	-261.5289916992188	235.1099395751954	-596.2597045898439	-398.8937072753907	95.2459182739258	-593.9082031250001	-346.7634277343751	90.9340286254883	-669.8228759765626	-448.1418457031251	46.62886047363282	-663.4431152343751	-239.0882263183594	60.24753952026369	-574.7903442382814	-254.9835815429688	61.21114349365236	-540.6688232421876	-286.3493652343751	41.25435256958009	-499.9644470214845	
358	1.785	-15.69841670989991	1319.584716796875	-918.0272216796877	-152.401611328125	1205.186279296875	-985.3382568359377	-158.8634033203125	1203.9375	-839.6081542968752	-212.6127014160157	1141.744873046875	-913.2171020507815	-434.839080810547	916.659606933594	-914.9250488281252	-97.10307312011722	998.3958740234377	-907.155456542969	-90.8329544067383	1057.453857421875	-1084.543823242188	-161.6029815673828	989.054138183594	-1276.086547851563	-165.489501953125	939.620300292969	-1279.729125976563	-189.3071746826172	960.3941040039065	-1331.660766601563	-228.4387969970704	911.205749511719	-1371.2783203125	-298.5831604003907	963.4122314453127	-1366.482421875	-431.8081665039064	814.7346191406252	-1145.196533203125	-411.0059204101564	747.9249877929689	-1188.533081054688	nan	nan	nan	-71.3302688598633	1038.84716796875	-734.3721923828126	-177.1987915039063	962.480163574219	-541.7610473632814	-194.162582397461	915.5984497070315	-550.6759643554689	-220.5016174316407	928.9573974609377	-497.6441040039064	-270.8479614257813	881.1582031250002	-473.1058044433595	-337.3385620117188	940.932556152344	-477.6627197265626	-481.9010620117189	785.282165527344	-673.1951293945314	-445.4531860351564	717.2743530273439	-652.9859619140626	nan	nan	nan	nan	nan	nan	nan	nan	nan	-527.1223754882814	846.392272949219	-919.1895141601565	-549.5776977539064	834.0845336914065	-950.3530883789065	-560.2031860351564	829.7570800781252	-896.1521606445315	-429.3698730468751	628.9733886718751	-1184.113403320313	-352.0677490234376	618.8657226562501	-1215.712280273438	-324.0310668945313	657.2661132812501	-1203.185180664063	-326.0776062011719	567.7869873046876	-1234.620727539063	-192.8912200927735	502.3543090820314	-1269.888305664063	-146.356674194336	466.9616699218751	-1155.38427734375	-209.7929992675782	285.0750122070313	-1213.144775390625	-277.6760253906251	264.1144714355469	-1270.160766601563	-243.5030670166016	247.957015991211	-1245.106079101563	-277.1812438964844	177.85205078125	-1207.240966796875	-387.3364868164064	100.0082626342774	-1233.238159179688	-439.8562011718751	47.77181625366212	-1174.237060546875	-225.2106933593751	58.8483352661133	-1209.944091796875	-234.6680297851563	58.90736389160158	-1250.9912109375	-339.4169006347657	98.32444000244143	-1157.974243164063	-371.6007080078126	573.5299072265626	-603.5825805664064	-306.4410400390626	586.3369750976564	-578.0085449218751	-287.5736083984376	613.8576049804689	-586.9032592773439	-255.3551330566407	522.2914428710939	-560.9103393554689	-219.7829132080079	483.3716735839845	-544.5238037109376	-154.153305053711	464.2427673339845	-652.3022460937501	-206.3987884521485	345.1062316894532	-550.8010864257814	-304.5442199707032	299.3825073242188	-546.4793090820314	-262.3419494628907	279.4658813476563	-555.7623291015626	-261.0973205566407	234.8314666748047	-596.0187988281251	-398.8585510253907	95.2351760864258	-593.9216918945314	-346.8070373535157	90.89307403564455	-669.8586425781251	-448.1855773925782	46.68471145629884	-663.4399414062501	-239.1416015625001	60.21651840209962	-574.7678833007814	-254.9933319091797	61.22964477539064	-540.6639404296876	-286.3374328613282	41.26123046875001	-499.9562377929689	
359	1.79	-15.04293918609619	1316.520263671875	-918.380798339844	-151.7454681396485	1201.502563476563	-985.3154296875002	-158.2289123535157	1200.6396484375	-839.5656738281252	-211.8468780517579	1138.752807617188	-913.2479248046877	-434.5225219726564	914.2647705078127	-914.9104614257815	-96.40665435791018	995.010925292969	-907.0215454101565	-89.85405731201173	1054.0419921875	-1084.457885742188	-160.5345916748047	985.796325683594	-1275.857543945313	-164.8469696044922	936.5145263671877	-1279.662231445313	-189.0709991455078	957.588562011719	-1331.77001953125	-227.7362518310547	908.0451660156252	-1371.068115234375	-297.9612426757813	960.8027954101565	-1366.42041015625	-432.0447692871095	812.6243896484377	-1145.074096679688	-411.103485107422	745.7924194335939	-1188.260375976563	nan	nan	nan	-70.59143829345705	1035.687377929688	-734.4618530273439	-176.4591522216797	959.3781738281252	-541.7310180664064	-193.5454254150391	912.615173339844	-550.6436157226564	-219.7344360351563	926.075134277344	-497.7158813476564	-270.3758850097657	878.3131103515627	-473.2405700683595	-336.7273559570313	938.7993164062502	-477.4507141113282	-482.0907287597657	783.6668090820315	-673.2186889648439	-445.9310607910157	715.5606689453126	-653.0494384765626	nan	nan	nan	nan	nan	nan	nan	nan	nan	-526.8587036132814	844.207214355469	-919.1907958984377	-549.5067749023439	831.8713989257815	-950.2783203125002	-560.0498657226564	827.4570922851565	-896.170349121094	-430.3183898925782	628.0412597656251	-1184.182739257813	-352.5186157226563	617.9144287109376	-1215.746215820313	-324.2307128906251	656.3840332031251	-1203.03369140625	-326.1278991699219	566.8129272460939	-1234.8017578125	-192.8631896972657	502.2825317382814	-1270.205444335938	-146.0897369384766	466.7041320800782	-1155.655639648438	-209.5674438476563	284.9229431152344	-1213.382446289063	-277.6203002929688	263.9752197265626	-1270.25341796875	-243.4335327148438	247.8005371093751	-1245.308227539063	-277.0072937011719	177.8112487792969	-1207.278442382813	-387.4144592285157	100.0514450073242	-1233.198364257813	-439.8606262207032	47.80865478515626	-1174.229736328125	-225.2589874267579	59.20909881591798	-1209.9609375	-234.7849578857422	58.97146224975587	-1251.0390625	-339.2486572265626	98.40900421142581	-1158.025390625	-371.6540527343751	572.3558349609376	-603.5651855468751	-306.5023193359376	585.6640014648439	-578.1358032226564	-287.7921142578126	613.0723266601564	-587.0072631835939	-255.2210693359376	521.4629516601564	-560.7372436523439	-219.4149169921876	483.1890869140626	-544.3533935546876	-153.7855834960938	463.8819580078126	-652.1405029296876	-206.0913543701172	344.9796142578126	-550.7119750976564	-304.3442382812501	299.4073181152344	-546.3989257812501	-262.1523132324219	279.2767639160157	-555.6642456054689	-260.9670715332032	234.7480010986329	-595.9547119140626	-398.8201904296876	95.32369232177736	-593.9404296875001	-346.7223205566407	90.86746215820314	-669.8374023437501	-448.1463012695314	46.64395141601563	-663.4463500976564	-239.1697387695313	60.21156692504884	-574.7594604492189	-254.9846496582032	61.25344467163087	-540.6518554687501	-286.3623962402344	41.22937774658204	-499.9426269531251	
